Coordinates
version=1
nRows=14
nColumns=32
inDegrees=yes

Units are S.I. units (second, meters, Newtons, ...)
If the header above contains a line with 'inDegrees', this indicates whether rotational values are in degrees (yes) or radians (no).

endheader
time	pelvis_tilt	pelvis_list	pelvis_rotation	pelvis_tx	pelvis_ty	pelvis_tz	hip_flexion_r	hip_adduction_r	hip_rotation_r	knee_angle_r	ankle_angle_r	subtalar_angle_r	mtp_angle_r	hip_flexion_l	hip_adduction_l	hip_rotation_l	knee_angle_l	ankle_angle_l	subtalar_angle_l	mtp_angle_l	lumbar_extension	lumbar_bending	lumbar_rotation	arm_flex_r	arm_add_r	arm_rot_r	elbow_flex_r	arm_flex_l	arm_add_l	arm_rot_l	elbow_flex_l
      2.25000000	    -15.81552571	     -6.52793403	     10.06792201	     -1.38025748	      0.86557887	     -0.20801944	     39.49067176	     -3.13303614	    -17.58720088	    -67.97071071	     10.39182421	     -9.73451477	      0.00000000	     35.31498948	     -2.37263993	      2.77949252	    -30.78180739	      3.53351118	    -24.07905502	      0.00000000	      5.19954731	     -7.68546408	     -8.75754575	      0.00000000	      0.00000000	      0.00000000	      0.00000000	      0.00000000	      0.00000000	      0.00000000	      0.00000000
      2.26000000	    -15.64138665	     -6.78434408	     10.45710144	     -1.37173132	      0.86676901	     -0.20769378	     41.07078277	     -3.47448141	    -17.89681767	    -67.65386496	     10.50709635	     -9.77586416	      0.00000000	     34.47569473	     -2.85641505	      2.34615087	    -30.38342088	      3.58712444	    -24.25762754	      0.00000000	      4.83300171	     -7.35003694	     -9.05325637	      0.00000000	      0.00000000	      0.00000000	      0.00000000	      0.00000000	      0.00000000	      0.00000000	      0.00000000
      2.27000000	    -15.62796566	     -7.08735581	     10.74058199	     -1.36329466	      0.86837704	     -0.20791189	     42.59783538	     -3.58204873	    -17.98994095	    -66.69346302	     10.85392524	     -9.71984440	      0.00000000	     33.49634356	     -3.13909639	      2.75536469	    -29.49276205	      3.54234563	    -24.55567884	      0.00000000	      4.61393278	     -6.85855389	     -9.37946071	      0.00000000	      0.00000000	      0.00000000	      0.00000000	      0.00000000	      0.00000000	      0.00000000	      0.00000000
      2.28000000	    -15.49613236	     -7.20363031	     11.09946152	     -1.35514022	      0.86898001	     -0.20779253	     44.11749617	     -4.06079049	    -18.14903875	    -65.69661169	     10.90740825	     -9.72957106	      0.00000000	     32.82306196	     -3.41031022	      2.58432690	    -29.38306406	      3.58069163	    -24.59289973	      0.00000000	      4.15095966	     -6.58495461	     -9.47391275	      0.00000000	      0.00000000	      0.00000000	      0.00000000	      0.00000000	      0.00000000	      0.00000000	      0.00000000
      2.29000000	    -15.56635693	     -7.41528170	     11.37822902	     -1.34598832	      0.87019845	     -0.20883936	     45.27045622	     -4.44683214	    -18.57560516	    -63.50333611	     11.05943353	     -9.98109826	      0.00000000	     31.87033398	     -3.53423915	      2.80717232	    -28.55961348	      3.67960016	    -24.75265989	      0.00000000	      4.24907508	     -6.10706600	     -9.88738891	      0.00000000	      0.00000000	      0.00000000	      0.00000000	      0.00000000	      0.00000000	      0.00000000	      0.00000000
      2.30000000	    -15.64865216	     -7.66027878	     11.65913894	     -1.33744798	      0.87127213	     -0.20923858	     46.40409337	     -4.56540923	    -18.49127925	    -61.29331103	     11.21380911	    -10.09524051	      0.00000000	     30.89321548	     -3.64685919	      3.65439590	    -27.47668746	      3.74586802	    -24.90800710	      0.00000000	      4.20577988	     -5.66323556	    -10.24678793	      0.00000000	      0.00000000	      0.00000000	      0.00000000	      0.00000000	      0.00000000	      0.00000000	      0.00000000
      2.31000000	    -15.68619734	     -7.92688582	     12.03062320	     -1.32890628	      0.87197212	     -0.21008083	     47.17126963	     -4.77353459	    -18.66450106	    -58.39775047	     11.30801683	    -10.26771746	      0.00000000	     30.11521813	     -3.79908232	      4.09489985	    -26.97084472	      3.70912021	    -25.24188106	      0.00000000	      4.19258033	     -5.01438499	    -10.70001818	      0.00000000	      0.00000000	      0.00000000	      0.00000000	      0.00000000	      0.00000000	      0.00000000	      0.00000000
      2.32000000	    -15.45821547	     -8.68678903	     12.73082149	     -1.32062176	      0.87261978	     -0.21110153	     47.39409369	     -4.62809502	    -19.41663775	    -54.94791967	     11.13886814	    -10.50576146	      0.00000000	     29.65139968	     -4.42803863	      4.81772318	    -26.93627306	      4.23044063	    -25.82496607	      0.00000000	      3.85579505	     -3.78200450	    -11.33254392	      0.00000000	      0.00000000	      0.00000000	      0.00000000	      0.00000000	      0.00000000	      0.00000000	      0.00000000
      2.33000000	    -15.67702918	     -8.70159780	     12.98048700	     -1.31133935	      0.87293430	     -0.21177133	     47.87529187	     -4.97726093	    -19.48770612	    -51.56639025	     11.02297017	    -10.45100241	      0.00000000	     28.92313093	     -4.45037278	      4.78208866	    -26.29061124	      4.19784230	    -25.84408962	      0.00000000	      4.08799675	     -3.53173728	    -11.50472843	      0.00000000	      0.00000000	      0.00000000	      0.00000000	      0.00000000	      0.00000000	      0.00000000	      0.00000000
      2.34000000	    -15.85773531	     -8.72900505	     13.39431219	     -1.30162137	      0.87300696	     -0.21214086	     48.14251327	     -5.32014855	    -19.68507594	    -47.59785328	     10.76594064	    -10.34915716	      0.00000000	     28.04851377	     -4.48797325	      5.09808126	    -25.42882999	      4.27722790	    -25.91212984	      0.00000000	      4.35228799	     -3.32234184	    -11.70406427	      0.00000000	      0.00000000	      0.00000000	      0.00000000	      0.00000000	      0.00000000	      0.00000000	      0.00000000
      2.35000000	    -15.48526730	     -9.17312672	     14.03436713	     -1.29258033	      0.87331514	     -0.21297562	     47.57599660	     -5.23410344	    -20.29718518	    -43.23823050	      8.87116502	    -10.08208873	      0.00000000	     27.29855453	     -5.00920216	      5.39277226	    -25.40539847	      4.60185953	    -26.47106729	      0.00000000	      3.91559172	     -2.33886137	    -12.21609301	      0.00000000	      0.00000000	      0.00000000	      0.00000000	      0.00000000	      0.00000000	      0.00000000	      0.00000000
      2.36000000	    -15.71540036	     -8.85337741	     14.49660420	     -1.28341199	      0.87272732	     -0.21379612	     47.57490472	     -5.76838744	    -20.24504387	    -39.00007217	      8.63192487	    -10.05208017	      0.00000000	     26.69784918	     -4.58458596	      5.66344229	    -25.13262974	      4.71344570	    -26.41975488	      0.00000000	      4.07291757	     -2.42025874	    -12.37977256	      0.00000000	      0.00000000	      0.00000000	      0.00000000	      0.00000000	      0.00000000	      0.00000000	      0.00000000
      2.37000000	    -15.08978297	     -9.19612304	     15.44599459	     -1.27375925	      0.87308851	     -0.21536146	     46.42354702	     -5.96452996	    -21.47646782	    -34.53364855	      6.43880709	    -10.18357065	      0.00000000	     25.50283678	     -4.92741250	      6.35268405	    -24.85604122	      4.78419863	    -26.53444761	      0.00000000	      3.43034003	     -1.44020108	    -12.95508939	      0.00000000	      0.00000000	      0.00000000	      0.00000000	      0.00000000	      0.00000000	      0.00000000	      0.00000000
      2.38000000	    -14.79183525	     -9.02908092	     16.00082634	     -1.26350120	      0.87291764	     -0.21667881	     45.43627075	     -6.32746604	    -22.27681285	    -30.10521582	      4.63413877	    -10.21165992	      0.00000000	     24.26515996	     -4.85712025	      6.58205768	    -24.38519728	      4.80259993	    -26.56028195	      0.00000000	      3.14401549	     -1.07176800	    -13.25280921	      0.00000000	      0.00000000	      0.00000000	      0.00000000	      0.00000000	      0.00000000	      0.00000000	      0.00000000
